<svg width="88" height="88" viewBox="0 0 88 88" fill="none" xmlns="http://www.w3.org/2000/svg">
<path d="M80.4092 62.2235C78.6423 61.0441 76.686 60.2718 74.5915 59.9208L69.8596 59.1321L69.2161 57.1991C71.5726 55.6897 73.3231 53.3284 74.0415 50.5506H74.4136C77.5097 50.5506 80.0301 48.0302 80.0301 44.9341C80.0301 43.9044 79.7305 42.952 79.2438 42.1212C79.7539 40.7639 80.0301 39.3551 80.0301 37.9135C80.0301 30.2658 75.3473 25.2788 67.173 24.1438C66.155 23.1118 64.7416 22.4682 63.1807 22.4682H62.7407C60.7422 22.4682 58.9145 23.2124 57.5127 24.4317C50.3026 25.9785 46.3313 30.7479 46.3313 37.9135C46.3313 39.3551 46.605 40.7639 47.1152 42.1212C46.6308 42.952 46.3313 43.9068 46.3313 44.9341C46.3313 45.4186 46.4131 45.8796 46.5278 46.3289C45.4092 43.6962 43.5558 41.3934 41.0962 39.7553C39.3294 38.5758 37.373 37.8036 35.2785 37.4525L30.5466 36.6639L29.9031 34.7309C30.3875 34.422 30.8438 34.0756 31.2697 33.6988H32.5311C35.4657 33.6988 38.2272 32.5568 40.3052 30.4787L40.7171 30.0669V16.8494C40.7171 7.55884 33.1583 0 23.8677 0C14.5771 0 7.01825 7.55884 7.01825 16.8494V30.0669L7.43013 30.4787C9.50588 32.5568 12.265 33.6988 15.2043 33.6988H16.4656C16.8962 34.0756 17.3502 34.422 17.8323 34.7309L17.1888 36.6639L12.4569 37.4525C10.3624 37.8036 8.40365 38.5758 6.63914 39.7553C2.48295 42.5261 0 47.1643 0 52.1583V64.5895H43.2C40.7265 67.3017 39.3153 70.8612 39.3153 74.6242V87.0554H87.0554V74.6242C87.0484 69.6302 84.5654 64.9943 80.4092 62.2235ZM70.8448 62.1439L69.429 65.5794L66.0193 64.215L69.1552 61.8631L70.8448 62.1439ZM57.1991 61.8631L60.335 64.215L56.9253 65.5794L55.5095 62.1439L57.1991 61.8631ZM67.1403 59.8623L63.176 62.8343L59.2117 59.8599L59.6938 58.4113C60.7913 58.7717 61.9591 58.973 63.176 58.973C64.3906 58.973 65.5606 58.7717 66.6582 58.4137L67.1403 59.8623ZM71.6031 47.7424C71.6031 52.39 67.8236 56.1671 63.1783 56.1671C58.5307 56.1671 54.7536 52.39 54.7536 47.7424V40.8481C54.7536 38.969 55.6686 37.2583 57.1874 36.2192C58.4652 37.4478 60.1618 38.2505 62.0738 38.412L69.0359 38.9924C70.5008 39.1141 71.6031 40.3169 71.6031 41.7889V47.7424ZM74.4113 47.7424V42.1259C75.9605 42.1259 77.2195 43.3849 77.2195 44.9341C77.2195 46.4833 75.9582 47.7424 74.4113 47.7424ZM62.7384 25.2765H63.1783C64.7275 25.2765 65.9866 26.5355 65.9866 28.0847C65.9866 29.6339 64.7275 30.8929 63.1783 30.8929H60.3701V33.7012H63.1783C66.2744 33.7012 68.7948 31.1808 68.7948 28.0847C68.7948 27.8132 68.7503 27.5488 68.7152 27.2867C75.6562 28.9693 77.2195 33.8744 77.2195 37.9135C77.2195 38.6086 77.1353 39.2943 76.9785 39.9682C76.2062 39.5681 75.3403 39.3177 74.4113 39.3177H73.8239C72.9861 37.5976 71.3129 36.362 69.2675 36.1935L62.3055 35.6131C59.6025 35.3885 57.5619 33.17 57.5619 30.4553C57.5619 27.5979 59.8833 25.2765 62.7384 25.2765ZM55.0953 28.1409C54.873 28.8734 54.7513 29.6503 54.7513 30.453C54.7513 31.705 55.0321 32.8891 55.5399 33.9422C53.7145 35.213 52.4953 37.1389 52.0975 39.3177H51.943C51.014 39.3177 50.1481 39.5657 49.3759 39.9682C49.2191 39.2943 49.1348 38.6086 49.1348 37.9135C49.1371 34.4922 50.2721 30.3079 55.0953 28.1409ZM51.9454 42.1259V47.7424C50.3962 47.7424 49.1372 46.4833 49.1372 44.9341C49.1372 43.3849 50.3962 42.1259 51.9454 42.1259ZM51.9454 50.5506H52.3151C53.0335 53.3308 54.784 55.6897 57.1406 57.1991L56.4971 59.1321L51.7652 59.9208C50.3517 60.1571 49.0061 60.6017 47.733 61.2196V52.1607C47.733 50.5202 47.4405 48.9288 46.935 47.4194C47.8547 49.2658 49.7433 50.5506 51.9454 50.5506ZM31.5295 39.6781L30.1137 43.1135L26.704 41.7491L29.8399 39.3949L31.5295 39.6781ZM32.2877 25.2765C32.2877 29.9241 28.5083 33.7012 23.863 33.7012C19.2177 33.7012 15.4383 29.9241 15.4383 25.2765V18.3823C15.4383 16.241 16.6271 14.315 18.5437 13.3578L18.6444 13.3087C19.4728 15.3845 21.4994 16.8518 23.8653 16.8518H28.0777C30.4015 16.8518 32.29 18.7403 32.29 21.0641V25.2765H32.2877ZM9.8218 16.8518C9.8218 9.10805 16.1193 2.81058 23.863 2.81058C31.6067 2.81058 37.9042 9.10805 37.9042 16.8518V28.8804C36.6943 29.9381 35.2176 30.5817 33.6357 30.7947C34.56 29.1635 35.0959 27.282 35.0959 25.2765V21.0641C35.0959 17.1934 31.946 14.0435 28.0753 14.0435H23.863C22.3138 14.0435 21.0548 12.7845 21.0548 11.2353C21.0548 9.68608 22.3138 8.42705 23.863 8.42705V5.61881C21.0758 5.61881 18.752 7.66181 18.3191 10.332L17.287 10.8492C14.4133 12.2837 12.6277 15.1715 12.6277 18.3846V25.2788C12.6277 27.2844 13.1636 29.1659 14.088 30.797C12.5084 30.584 11.0294 29.9405 9.81949 28.8827V16.8518H9.8218ZM23.863 36.5094C25.0799 36.5094 26.2477 36.3082 27.3452 35.9501L27.8296 37.3964L23.8653 40.3684L19.9011 37.394L20.3831 35.9454C21.4783 36.3082 22.6461 36.5094 23.863 36.5094ZM17.8838 39.3972L21.0197 41.7491L17.61 43.1135L16.1942 39.6781L17.8838 39.3972ZM2.80121 52.1607C2.80121 48.1051 4.81612 44.3421 8.18835 42.0931C9.62055 41.136 11.2096 40.5088 12.9109 40.2257L13.3532 40.1531L16.0748 46.7548L22.4612 44.2016V47.7447H25.2695V44.2016L31.6535 46.7548L34.3752 40.1531L34.8151 40.2257C36.5164 40.5088 38.1055 41.136 39.5377 42.0931C42.9122 44.3421 44.9271 48.1051 44.9271 52.1607V61.7836H39.3106V50.5506H36.5024V61.7836H11.2283V50.5506H8.42003V61.7836H2.80355V52.1607H2.80121ZM84.2401 84.2495H78.6236V73.0165H75.8154V84.2495H50.5413V73.0165H47.733V84.2495H42.1166V74.6266C42.1166 70.571 44.1315 66.808 47.5037 64.559C48.9382 63.6019 50.5249 62.9747 52.2262 62.6916L52.6685 62.619L55.3902 69.2207L61.7766 66.6675V70.2106H64.5848V66.6675L70.9689 69.2207L73.6905 62.619L74.1305 62.6916C75.8318 62.9747 77.4184 63.6019 78.853 64.559C82.2275 66.808 84.2425 70.571 84.2425 74.6266V84.2495H84.2401Z" fill="#00485A"/>
</svg>
